<svg width="486" height="94" viewBox="0 0 486 94" fill="none" xmlns="http://www.w3.org/2000/svg">
<path d="M469.906 23.6976H485.397L457.178 93.2H442.524L451.4 71.4281L432.056 23.6976H448.553L459.187 54.0107L469.906 23.6976Z" fill="#336EF2"/>
<path d="M396.773 73.9408C382.705 73.9408 372.908 63.1387 372.908 48.2333C372.908 33.328 382.705 22.5258 396.773 22.5258C403.221 22.5258 407.91 24.7867 410.841 28.7224V23.6981H425.747V72.7685H410.841V67.7442C407.91 71.6799 403.221 73.9408 396.773 73.9408ZM399.118 61.2127C406.403 61.2127 411.093 55.7697 411.093 48.2333C411.093 40.6969 406.403 35.254 399.118 35.254C392 35.254 387.478 40.6969 387.478 48.2333C387.478 55.7697 392 61.2127 399.118 61.2127Z" fill="#336EF2"/>
<path d="M364.239 2.42847V72.7682H349.334V2.42847H364.239Z" fill="#336EF2"/>
<path d="M315.037 73.9408C300.048 73.9408 289.497 63.2224 289.497 48.2333C289.497 33.328 300.048 22.5258 315.037 22.5258C330.026 22.5258 340.577 33.2443 340.577 48.2333C340.577 49.6569 340.494 51.2479 340.242 53.0064H304.319C305.491 58.7006 309.427 61.9663 315.037 61.9663C319.308 61.9663 322.825 60.4591 324.081 58.1144H339.07C336.558 67.493 326.928 73.9408 315.037 73.9408ZM304.235 43.3765H326.007C324.751 37.5149 320.899 34.3329 315.037 34.3329C309.176 34.3329 305.491 37.5149 304.235 43.3765Z" fill="#336EF2"/>
<path d="M286.68 72.7687H269.011L255.78 51.2481H243.638V72.7687H228.398V4.52234H255.864C273.198 4.52234 283.33 13.7335 283.33 27.8852C283.33 37.2638 278.892 44.4653 270.853 48.2335L286.68 72.7687ZM243.638 18.0041V37.7663H255.194C263.233 37.7663 268.09 34.333 268.09 27.8852C268.09 21.4374 263.233 18.0041 255.194 18.0041H243.638Z" fill="#336EF2"/>
<path d="M209.346 -3.05176e-05C214.621 -3.05176e-05 218.473 3.85191 218.473 9.12739C218.473 14.4029 214.621 18.2548 209.346 18.2548C204.07 18.2548 200.218 14.4029 200.218 9.12739C200.218 3.85191 204.07 -3.05176e-05 209.346 -3.05176e-05ZM216.798 23.6978V72.9356H201.893V23.6978H216.798Z" fill="black"/>
<path d="M161.67 73.9406C147.602 73.9406 137.804 63.1384 137.804 48.2331C137.804 33.3277 147.602 22.5255 161.67 22.5255C168.117 22.5255 172.807 24.7865 175.738 28.7221V2.42847H190.643V72.7682H175.738V67.744C172.807 71.6797 168.117 73.9406 161.67 73.9406ZM164.014 61.2124C171.299 61.2124 175.989 55.7695 175.989 48.2331C175.989 40.6967 171.299 35.2537 164.014 35.2537C156.897 35.2537 152.375 40.6967 152.375 48.2331C152.375 55.7695 156.897 61.2124 164.014 61.2124Z" fill="black"/>
<path d="M106.02 73.9408C91.0308 73.9408 80.4799 63.2224 80.4799 48.2333C80.4799 33.328 91.0308 22.5258 106.02 22.5258C121.009 22.5258 131.56 33.2443 131.56 48.2333C131.56 49.6569 131.476 51.2479 131.225 53.0064H95.3015C96.4738 58.7006 100.409 61.9663 106.02 61.9663C110.291 61.9663 113.808 60.4591 115.064 58.1144H130.053C127.541 67.493 117.911 73.9408 106.02 73.9408ZM95.2177 43.3765H116.99C115.733 37.5149 111.882 34.3329 106.02 34.3329C100.158 34.3329 96.4738 37.5149 95.2177 43.3765Z" fill="black"/>
<path d="M0 72.7687V4.52234H12.142L35.6723 42.7068L59.2026 4.52234H71.3446V72.7687H56.1043V35.3379L40.2779 61.5478H31.0667L15.2403 35.3379V72.7687H0Z" fill="black"/>
</svg>
